<svg width="88" height="88" viewBox="0 0 88 88" fill="none" xmlns="http://www.w3.org/2000/svg">
<circle cx="44" cy="44" r="44" fill="#3A3054"/>
<path fill-rule="evenodd" clip-rule="evenodd" d="M66.6084 26.0201C66.3272 25.8487 65.9782 25.8308 65.6808 25.9728L58.0566 29.5643C55.3686 30.8303 53.5647 33.4392 53.3292 36.4011L53.1326 38.8368L49.1822 45.3982V42.5966C49.1822 42.5922 49.1811 42.588 49.1799 42.5838C49.1787 42.5794 49.1775 42.575 49.1775 42.5699C49.176 42.4736 49.1606 42.3777 49.131 42.2857L47.293 36.7717L51.0459 29.2684C51.2107 28.9344 51.1726 28.5356 50.9474 28.2386L45.047 20.3713C44.6896 19.937 44.0476 19.8747 43.6129 20.2321C43.562 20.2739 43.5155 20.3207 43.4737 20.3713L37.573 28.2386C37.3496 28.5367 37.3133 28.9351 37.4796 29.2684L41.2325 36.7717L39.3945 42.2857C39.3648 42.3777 39.3495 42.4736 39.348 42.5699V42.5966V46.5213L33.2213 37.2221C33.2173 37.2167 33.2123 37.2123 33.2074 37.2082C33.2028 37.2042 33.1983 37.2004 33.1949 37.1958C33.1356 37.1137 33.0645 37.0416 32.9836 36.9812C32.976 36.9756 32.9686 36.9697 32.9612 36.9638L32.9612 36.9637C32.9506 36.9552 32.94 36.9466 32.9283 36.939C32.9185 36.9325 32.9128 36.9275 32.9079 36.9233C32.9032 36.9192 32.8993 36.9157 32.8932 36.9123L29.2878 34.8275L27.7911 32.5559L25.6275 29.2713C25.3792 28.8948 24.9065 28.7355 24.4809 28.885L20.6544 30.2271C20.1428 30.4091 19.8751 30.9713 20.0571 31.4829C20.0835 31.5579 20.119 31.629 20.1629 31.6953L22.8681 35.8023L24.3601 38.0728L24.8515 42.2092C24.8541 42.2224 24.8574 42.2356 24.8614 42.2484C24.8658 42.2693 24.8709 42.2901 24.8772 42.3103C24.8995 42.4143 24.9387 42.5142 24.9932 42.6054C24.9967 42.6104 24.9985 42.6161 25.0002 42.6217C25.0019 42.6274 25.0037 42.6331 25.0072 42.638L25.6711 43.6439L25.6719 43.6451C28.531 47.9772 39.6405 64.8107 39.7021 64.863C40.4214 66.7523 42.233 68.0007 44.2545 68C44.6559 67.9996 45.0558 67.9509 45.4454 67.8546C46.7125 67.5437 47.8027 66.7395 48.4733 65.62L61.5525 43.9223L63.6176 42.6153C64.7026 41.9254 65.613 40.9941 66.2788 39.894C67.1237 38.4947 67.5346 36.8757 67.4588 35.2428L67.0753 26.8228C67.0636 26.494 66.8886 26.1926 66.6084 26.0201ZM59.4856 43.5444L57.964 46.0709L52.9103 43.0226L54.4337 40.4961L59.4856 43.5444ZM41.3149 43.5799V58.4463L47.2153 48.6604V43.5799H41.3149ZM43.0076 37.6795H45.5231L46.8337 41.613H41.6965L43.0076 37.6795ZM43.2818 29.8122C43.2818 30.3553 43.722 30.7955 44.2651 30.7955C44.8082 30.7955 45.2488 30.3553 45.2488 29.8122C45.2488 29.2691 44.8082 28.8289 44.2651 28.8289C43.722 28.8289 43.2818 29.2691 43.2818 29.8122ZM44.2651 22.6008L49.0142 28.9322L45.6241 35.7126H45.2484V32.5815C46.7847 32.0384 47.59 30.3527 47.0465 28.8165C46.5034 27.2802 44.8181 26.4753 43.2818 27.0184C41.7456 27.5615 40.9407 29.2471 41.4837 30.7834C41.7807 31.6235 42.4418 32.2845 43.2818 32.5815V35.7126H42.9061L39.5161 28.9322L44.2651 22.6008ZM30.2407 38.0088L30.53 37.818L28.1009 36.4117C27.9691 36.3352 27.8567 36.2293 27.7724 36.1019L26.6906 34.4598L25.0485 35.5416L26.13 37.1837C26.2142 37.3111 26.2673 37.4561 26.2856 37.6077L26.6189 40.3946L30.2407 38.0088ZM24.408 30.9921L25.6077 32.8144L23.9657 33.8962L22.4906 31.6641L24.408 30.9921ZM32.1153 39.1231L29.6566 40.7469L27.1931 42.3714L39.348 60.8212V50.0952L32.1153 39.1231ZM46.7916 64.5983C45.9578 65.9983 44.1472 66.4575 42.7472 65.6237C41.3471 64.7902 40.8883 62.9792 41.7218 61.5792L41.7271 61.5707L41.7397 61.5499L49.1654 49.2346H49.1822V49.2082L51.8944 44.709L54.4209 46.2353L56.951 47.7555L46.7916 64.5983ZM62.5706 40.9472C63.3975 40.4221 64.0918 39.7124 64.599 38.8745C65.2435 37.8066 65.5567 36.5717 65.4992 35.3263L65.3959 33.0642L63.0986 33.6336C61.6082 33.9987 60.4542 35.1783 60.1217 36.6765C60.0214 37.1254 59.6229 37.4448 59.163 37.4455C59.0905 37.4455 59.0183 37.4371 58.9476 37.4206C58.4177 37.302 58.0845 36.7764 58.2031 36.2465C58.6957 34.0185 60.4118 32.2644 62.6284 31.7231L65.0103 31.1328C65.1073 31.1134 65.2069 31.1093 65.3054 31.1199L65.1802 28.3792L58.8865 31.3422C56.8375 32.3079 55.4624 34.2965 55.2822 36.5545L55.12 38.6196L57.972 40.3368L60.8237 42.0536L62.5706 40.9472Z" fill="#2BD0D0"/>
</svg>
